<?xml version="1.0" encoding="UTF-8" standalone="no"?>
<svg
   xmlns:osb="http://www.openswatchbook.org/uri/2009/osb"
   xmlns:dc="http://purl.org/dc/elements/1.1/"
   xmlns:cc="http://creativecommons.org/ns#"
   xmlns:rdf="http://www.w3.org/1999/02/22-rdf-syntax-ns#"
   xmlns:svg="http://www.w3.org/2000/svg"
   xmlns="http://www.w3.org/2000/svg"
   xmlns:xlink="http://www.w3.org/1999/xlink"
   xmlns:sodipodi="http://sodipodi.sourceforge.net/DTD/sodipodi-0.dtd"
   xmlns:inkscape="http://www.inkscape.org/namespaces/inkscape"
   width="1235"
   height="1175"
   id="svg2"
   version="1.1"
   inkscape:version="0.48.4 r9939"
   sodipodi:docname="Communism star with black fond.svg">
  <metadata
     id="metadata10">
    <rdf:RDF>
      <cc:Work
         rdf:about="">
        <dc:format>image/svg+xml</dc:format>
        <dc:type
           rdf:resource="http://purl.org/dc/dcmitype/StillImage" />
        <dc:title></dc:title>
      </cc:Work>
    </rdf:RDF>
  </metadata>
  <defs
     id="defs8">
    <linearGradient
       id="linearGradient5378">
      <stop
         style="stop-color:#1c1c1c;stop-opacity:1;"
         offset="0"
         id="stop5380" />
      <stop
         style="stop-color:#ffff00;stop-opacity:0;"
         offset="1"
         id="stop5382" />
    </linearGradient>
    <linearGradient
       id="linearGradient5370"
       osb:paint="solid">
      <stop
         style="stop-color:#ffff00;stop-opacity:1;"
         offset="0"
         id="stop5372" />
    </linearGradient>
    <linearGradient
       inkscape:collect="always"
       id="linearGradient5300">
      <stop
         style="stop-color:#ff0000;stop-opacity:1;"
         offset="0"
         id="stop5302" />
      <stop
         style="stop-color:#ff0000;stop-opacity:0;"
         offset="1"
         id="stop5304" />
    </linearGradient>
    <radialGradient
       inkscape:collect="always"
       xlink:href="#linearGradient5300"
       id="radialGradient5308"
       cx="622.23822"
       cy="592.23822"
       fx="622.23822"
       fy="592.23822"
       r="617.5"
       gradientTransform="matrix(1,0,0,0.95141699,5.178593,42.872793)"
       gradientUnits="userSpaceOnUse" />
    <filter
       inkscape:collect="always"
       id="filter5342">
      <feGaussianBlur
         inkscape:collect="always"
         stdDeviation="21.777108"
         id="feGaussianBlur5344" />
    </filter>
  </defs>
  <sodipodi:namedview
     pagecolor="#ffffff"
     bordercolor="#666666"
     borderopacity="1"
     objecttolerance="10"
     gridtolerance="10"
     guidetolerance="10"
     inkscape:pageopacity="0"
     inkscape:pageshadow="2"
     inkscape:window-width="1366"
     inkscape:window-height="705"
     id="namedview6"
     showgrid="false"
     inkscape:zoom="0.44353588"
     inkscape:cx="492.91152"
     inkscape:cy="476.91686"
     inkscape:window-x="-8"
     inkscape:window-y="-8"
     inkscape:window-maximized="1"
     inkscape:current-layer="svg2"
     showguides="true"
     inkscape:guide-bbox="true">
    <sodipodi:guide
       position="0,0"
       orientation="0,1235"
       id="guide5426" />
    <sodipodi:guide
       position="1283.2088,1175"
       orientation="-1175,0"
       id="guide5428" />
    <sodipodi:guide
       position="1283.2088,1175"
       orientation="0,-1235"
       id="guide5430" />
    <sodipodi:guide
       position="-67.008292,0"
       orientation="1175,0"
       id="guide5432" />
  </sodipodi:namedview>
  <path
     style="fill:#000000;fill-opacity:1;stroke:#ff0000;stroke-opacity:0.99038463;filter:url(#filter5342)"
     inkscape:connector-curvature="0"
     d="M -1.5337671,460.80849 H 1233.4662 l -998.99995,726.00001 382,-1175.000014 381.99993,1175.000014 z"
     id="path4-1"
     transform="matrix(0.98761976,0,0,0.99259384,19.625439,11.431385)" />
  <path
     d="m 9.916793,467.83833 1235.000007,0 -999.00001,725.99997 382,-1175.000007 381.99991,1175.000007 z"
     id="path4"
     style="fill:url(#radialGradient5308);fill-opacity:1"
     inkscape:connector-curvature="0" />
  <g
     id="g3811"
     transform="matrix(10.097553,0,0,10.631221,112.51806,368.91102)"
     style="fill:#ffff00">
    <g
       id="g5421"
       transform="matrix(0.59169173,0,0,0.55771402,24.712107,0.1346189)"
       style="fill:#ffff00">
      <path
         style="fill:#ffff00;fill-opacity:1"
         d="m 40.474471,3.7132547 c 19.65997,5.5095909 39.54751,20.0440963 37.37093,44.8786063 -2.17518,24.81857 -29.44575,35.21931 -56.2747,12.022 l -0.96064,1.06471 c 0.45601,0.59778 1.12479,2.34719 0.0075,3.56186 -1.05447,1.14641 -2.69732,-0.13659 -3.58962,0.78335 -1.05763,1.09039 -0.74486,0.65996 -2.12995,3.87052 -3.27428,7.58959 -9.01818,9.85328 -10.97183,8.00163 -2.0020002,-1.89748 -0.5323402,-7.33029 6.2474,-11.36181 3.40976,-2.02759 3.58057,-2.00348 4.11518,-2.90208 0.60106,-1.01028 -1.03432,-2.57336 0.12356,-3.93749 1.19763,-1.41095 2.7499,-0.85361 3.37759,-0.4037 l 2.9689,-3.67819 c 26.13725,14.62445 41.67758,7.79574 45.37021,-5.0745 3.62705,-12.64168 2.61138,-28.2185 -25.65456,-46.8249063 z"
         id="path6570"
         inkscape:connector-curvature="0" />
      <path
         style="fill:#ffff00;fill-opacity:1"
         d="m 23.463198,24.638802 c -1.634287,1.634287 -2.034311,1.538148 -1.256911,2.315549 l 49.516717,51.326245 c 0.7774,0.777401 2.718946,0.08756 4.353233,-1.546726 1.634287,-1.634287 2.324126,-3.575833 1.546726,-4.353233 L 25.84011,23.430243 c -0.7774,-0.777401 -0.742625,-0.425728 -2.376912,1.208559 z"
         id="rect7857"
         inkscape:connector-curvature="0" />
      <path
         style="fill:#ffff00;fill-opacity:1"
         d="M 20.274959,40.611239 41.532561,19.353636 29.555894,17.188164 13.203889,33.540169 l 7.07107,7.07107 z"
         id="path7858"
         inkscape:connector-curvature="0" />
    </g>
  </g>
</svg>
