<svg fill="none" height="15" viewBox="0 0 15 15" width="15" xmlns="http://www.w3.org/2000/svg"><path d="m2.5 5.5.35355-.35355c-.143-.143-.35805-.18578-.54489-.10839s-.30866.25971-.30866.46194zm2 2-.35355.35355.35355.35356.35355-.35356zm2-2h.5c0-.20223-.12182-.38455-.30866-.46194s-.40189-.03461-.54489.10839zm4 4-.3536.35355.3536.35355.3536-.35355zm-9-6.5h12v-1h-12zm12.5.5v8h1v-8zm-.5 8.5h-12v1h12zm-12.5-.5v-8h-1v8zm.5.5c-.27614 0-.5-.2239-.5-.5h-1c0 .8284.671574 1.5 1.5 1.5zm12.5-.5c0 .2761-.2239.5-.5.5v1c.8284 0 1.5-.6716 1.5-1.5zm-.5-8.5c.2761 0 .5.22386.5.5h1c0-.82843-.6716-1.5-1.5-1.5zm-12-1c-.828427 0-1.5.67157-1.5 1.5h1c0-.27614.22386-.5.5-.5zm1.5 8v-4.5h-1v4.5zm-.85355-4.14645 2 2 .7071-.7071-2-2zm2.7071 2 2-2-.7071-.7071-2 2zm1.14645-2.35355v4.5h1v-4.5zm4-.5v4.5h1v-4.5zm-1.85355 2.85355 1.99995 2 .7072-.7071-2.00005-2zm2.70715 2 2-2-.7072-.7071-2 2z" fill="#aaa"/></svg>